solid Model
facet normal 0 7.105427357601e-16 1
  outer loop
    vertex 9.999999999999954 5.000000000000033 86.5
    vertex -5.8e-14 -34.99999999999997 86.50000000000003
    vertex 9.999999999999941 -34.99999999999997 86.50000000000003
  endloop
endfacet
facet normal 2.5243548967072374e-31 7.105427357601e-16 1
  outer loop
    vertex -4.7e-14 5.000000000000036 86.5
    vertex -5.8e-14 -34.99999999999997 86.50000000000003
    vertex 9.999999999999954 5.000000000000033 86.5
  endloop
endfacet
facet normal -1 5.000000000000013e-16 -2.1999999999999209e-16
  outer loop
    vertex -2.061113800340323e-14 5.9754516100806665 86.40392640201615
    vertex -2.007955890484969e-14 6.913417161825473 86.11939766255644
    vertex -1.9545690990983795e-14 7.777851165098035 85.65734806151272
  endloop
endfacet
facet normal -1 3.530789760786434e-14 8.381369848259927e-14
  outer loop
    vertex -4.7e-14 5.000000000000036 86.5
    vertex -2.061113800340323e-14 5.9754516100806665 86.40392640201615
    vertex -1.9545690990983795e-14 7.777851165098035 85.65734806151272
  endloop
endfacet
facet normal -1 9.10882258644915e-15 1.0269880672749771e-14
  outer loop
    vertex -4.2e-14 10.000000000000036 81.5
    vertex -1.9545690990983795e-14 7.777851165098035 85.65734806151272
    vertex -1.9030050506338834e-14 8.53553390593276 85.03553390593274
  endloop
endfacet
facet normal -1 1.753464187499527e-14 1.3759969296170418e-14
  outer loop
    vertex -4.2e-14 10.000000000000036 81.5
    vertex -1.9030050506338834e-14 8.53553390593276 85.03553390593274
    vertex -1.85524532255652e-14 9.15734806151275 84.27785116509801
  endloop
endfacet
facet normal -0.9999999999999999 3.862250148158084e-14 2.0156901572205472e-14
  outer loop
    vertex -4.2e-14 10.000000000000036 81.5
    vertex -1.85524532255652e-14 9.15734806151275 84.27785116509801
    vertex -1.8131252944323383e-14 9.619397662556457 83.41341716182545
  endloop
endfacet
facet normal -0.9999999999999999 1.230063275578598e-13 3.694188818559197e-14
  outer loop
    vertex -4.2e-14 10.000000000000036 81.5
    vertex -1.8131252944323383e-14 9.619397662556457 83.41341716182545
    vertex -1.7782636153209665e-14 9.903926402016175 82.47545161008065
  endloop
endfacet
facet normal -1 1.3751378516792923e-14 1.2751378516792918e-14
  outer loop
    vertex -4.2e-14 10.000000000000036 81.5
    vertex -4.7e-14 5.000000000000036 86.5
    vertex -1.9545690990983795e-14 7.777851165098035 85.65734806151272
  endloop
endfacet
facet normal -0.9999999999999999 3.599999999999998e-16 -6.40000000000001e-16
  outer loop
    vertex -4.6e-14 -9.999999999999972 76.50000000000001
    vertex -4.7e-14 5.000000000000036 86.5
    vertex -4.2e-14 10.000000000000036 81.5
  endloop
endfacet
facet normal -1 2.7499999999999974e-16 -5.125000000000006e-16
  outer loop
    vertex -5.8e-14 -34.99999999999997 86.50000000000003
    vertex -4.7e-14 5.000000000000036 86.5
    vertex -4.6e-14 -9.999999999999972 76.50000000000001
  endloop
endfacet
facet normal -1 -2.515506169675135e-14 8.435340423724557e-14
  outer loop
    vertex -4.197297606667514e-14 -36.91341716182543 86.11939766255647
    vertex -4.1566589613483875e-14 -35.97545161008062 86.40392640201618
    vertex -5.8e-14 -34.99999999999997 86.50000000000003
  endloop
endfacet
facet normal -1 4.999999999999967e-16 -2.1999999999999433e-16
  outer loop
    vertex -4.268980128707793e-14 -39.15734806151271 84.27785116509804
    vertex -4.2303542156081804e-14 -37.77785116509799 85.65734806151275
    vertex -4.197297606667514e-14 -36.91341716182543 86.11939766255647
  endloop
endfacet
facet normal -1 4.999999999999922e-16 -2.1999999999998997e-16
  outer loop
    vertex -4.268980128707793e-14 -39.15734806151271 84.27785116509804
    vertex -4.254558441227157e-14 -38.535533905932716 85.03553390593277
    vertex -4.2303542156081804e-14 -37.77785116509799 85.65734806151275
  endloop
endfacet
facet normal -1 -1.115797135761666e-14 1.3985279200459546e-14
  outer loop
    vertex -4.268980128707793e-14 -39.15734806151271 84.27785116509804
    vertex -4.197297606667514e-14 -36.91341716182543 86.11939766255647
    vertex -5.8e-14 -34.99999999999997 86.50000000000003
  endloop
endfacet
facet normal -1 3.4130434782608665e-16 -5.652173913043479e-16
  outer loop
    vertex -3.3e-14 -9.99999999999998 53.500000000000014
    vertex -4.6e-14 -9.999999999999972 76.50000000000001
    vertex -4.2e-14 10.000000000000036 81.5
  endloop
endfacet
facet normal -1 4.999999999999675e-16 -2.1999999999998777e-16
  outer loop
    vertex -4.266656255522582e-14 -39.90392640201613 82.47545161008067
    vertex -4.2730650606879815e-14 -39.619397662556416 83.41341716182548
    vertex -4.268980128707793e-14 -39.15734806151271 84.27785116509804
  endloop
endfacet
facet normal -1 -4.721038574167729e-15 1.942624987093353e-15
  outer loop
    vertex -4.266656255522582e-14 -39.90392640201613 82.47545161008067
    vertex -4.268980128707793e-14 -39.15734806151271 84.27785116509804
    vertex -5.8e-14 -34.99999999999997 86.50000000000003
  endloop
endfacet
facet normal -1 -1.5606050981515512e-14 1.520605098151551e-14
  outer loop
    vertex -5.6e-14 -39.99999999999997 81.50000000000003
    vertex -4.266656255522582e-14 -39.90392640201613 82.47545161008067
    vertex -5.8e-14 -34.99999999999997 86.50000000000003
  endloop
endfacet
facet normal -1 2.3333333333333287e-16 -6.166666666666678e-16
  outer loop
    vertex -5.3e-14 -39.99999999999997 76.50000000000004
    vertex -5.8e-14 -34.99999999999997 86.50000000000003
    vertex -4.6e-14 -9.999999999999972 76.50000000000001
  endloop
endfacet
facet normal -1 2.0000000000000083e-16 -6.000000000000017e-16
  outer loop
    vertex -5.3e-14 -39.99999999999997 76.50000000000004
    vertex -5.6e-14 -39.99999999999997 81.50000000000003
    vertex -5.8e-14 -34.99999999999997 86.50000000000003
  endloop
endfacet
facet normal -1 -1.0580699572924565e-16 -9.581779601219444e-16
  outer loop
    vertex -2.2375690990983794e-14 -12.222148834901985 42.65734806151274
    vertex -3.3e-14 -9.99999999999998 53.500000000000014
    vertex -2.1860050506338833e-14 -11.464466094067255 42.03553390593275
  endloop
endfacet
facet normal -1 -3.599195420232776e-16 -9.257177299576029e-16
  outer loop
    vertex -2.13824532255652e-14 -10.842651938487265 41.27785116509803
    vertex -2.1860050506338833e-14 -11.464466094067255 42.03553390593275
    vertex -3.3e-14 -9.99999999999998 53.500000000000014
  endloop
endfacet
facet normal -1 -7.677060923464179e-16 -8.97603023471819e-16
  outer loop
    vertex -2.0961252944323382e-14 -10.380602337443559 40.413417161825464
    vertex -2.13824532255652e-14 -10.842651938487265 41.27785116509803
    vertex -3.3e-14 -9.99999999999998 53.500000000000014
  endloop
endfacet
facet normal -1 8.457966554767473e-17 -9.9719678134184e-16
  outer loop
    vertex -2.2909558904849694e-14 -13.086582838174548 43.11939766255645
    vertex -3.3e-14 -9.99999999999998 53.500000000000014
    vertex -2.2375690990983794e-14 -12.222148834901985 42.65734806151274
  endloop
endfacet
facet normal -1 7.941847798117605e-16 -8.887034141512584e-16
  outer loop
    vertex -2.0612636153209664e-14 -10.096073597983839 39.475451610080654
    vertex -3.3e-14 -9.99999999999998 53.500000000000014
    vertex -4.2e-14 10.000000000000036 81.5
  endloop
endfacet
facet normal -1 -1.6492405805553003e-15 -8.719650023857712e-16
  outer loop
    vertex -2.0612636153209664e-14 -10.096073597983839 39.475451610080654
    vertex -2.0961252944323382e-14 -10.380602337443559 40.413417161825464
    vertex -3.3e-14 -9.99999999999998 53.500000000000014
  endloop
endfacet
facet normal -1 2.493757357505319e-16 -1.046197475670722e-15
  outer loop
    vertex -2.3441138003403237e-14 -14.024548389919357 43.40392640201617
    vertex -3.3e-14 -9.99999999999998 53.500000000000014
    vertex -2.2909558904849694e-14 -13.086582838174548 43.11939766255645
  endloop
endfacet
facet normal -1 -8.681794128958233e-15 3.642694943701509e-15
  outer loop
    vertex -2.5e-14 -9.999999999999988 38.500000000000014
    vertex -2.0612636153209664e-14 -10.096073597983839 39.475451610080654
    vertex -4.2e-14 10.000000000000036 81.5
  endloop
endfacet
facet normal -1 4.407304623696123e-15 -2.703652311848063e-15
  outer loop
    vertex -2.8e-14 -14.999999999999984 43.500000000000014
    vertex -3.3e-14 -9.99999999999998 53.500000000000014
    vertex -2.3441138003403237e-14 -14.024548389919357 43.40392640201617
  endloop
endfacet
facet normal -1 3.3711656441717736e-16 -5.521472392638038e-16
  outer loop
    vertex 3e-15 10.000000000000002 -6e-15
    vertex -2.5e-14 -9.999999999999988 38.500000000000014
    vertex -4.2e-14 10.000000000000036 81.5
  endloop
endfacet
facet normal -1 2.6666666666666633e-16 -5.666666666666673e-16
  outer loop
    vertex -3.4e-14 -34.99999999999999 43.500000000000036
    vertex -4.1e-14 -39.999999999999986 53.500000000000036
    vertex -3.3e-14 -9.99999999999998 53.500000000000014
  endloop
endfacet
facet normal -1 2.999999999999992e-16 -6.499999999999996e-16
  outer loop
    vertex -3.4e-14 -34.99999999999999 43.500000000000036
    vertex -3.3e-14 -9.99999999999998 53.500000000000014
    vertex -2.8e-14 -14.999999999999984 43.500000000000014
  endloop
endfacet
facet normal -1 2.0000000000000014e-16 -6.000000000000003e-16
  outer loop
    vertex -3.8e-14 -39.99999999999999 48.500000000000036
    vertex -4.1e-14 -39.999999999999986 53.500000000000036
    vertex -3.4e-14 -34.99999999999999 43.500000000000036
  endloop
endfacet
facet normal -1 -4.454300011530827e-15 -1.7228704780936818e-15
  outer loop
    vertex -3.639874705567662e-14 -39.61939766255644 46.586582838174586
    vertex -3.674736384679034e-14 -39.903926402016154 47.524548389919396
    vertex -3.8e-14 -39.99999999999999 48.500000000000036
  endloop
endfacet
facet normal -1 1.5855425714505295e-16 -6.4144574285494735e-16
  outer loop
    vertex -3.549994949366117e-14 -38.53553390593274 44.96446609406729
    vertex -3.8e-14 -39.99999999999999 48.500000000000036
    vertex -3.4e-14 -34.99999999999999 43.500000000000036
  endloop
endfacet
facet normal -1 -6.025700472698553e-16 -9.567137523953884e-16
  outer loop
    vertex -3.549994949366117e-14 -38.53553390593274 44.96446609406729
    vertex -3.639874705567662e-14 -39.61939766255644 46.586582838174586
    vertex -3.8e-14 -39.99999999999999 48.500000000000036
  endloop
endfacet
facet normal -1 -2.4147565304891133e-16 -1.6072033774001142e-15
  outer loop
    vertex -3.549994949366117e-14 -38.53553390593274 44.96446609406729
    vertex -3.4e-14 -34.99999999999999 43.500000000000036
    vertex -3.391886199659677e-14 -35.97545161008064 43.596073597983874
  endloop
endfacet
facet normal -1 4.999999999999913e-16 -2.2000000000001445e-16
  outer loop
    vertex -3.549994949366117e-14 -38.53553390593274 44.96446609406729
    vertex -3.391886199659677e-14 -35.97545161008064 43.596073597983874
    vertex -3.445044109515031e-14 -36.91341716182545 43.8806023374436
  endloop
endfacet
facet normal -0.9999999999999999 4.999999999999964e-16 -2.2000000000000505e-16
  outer loop
    vertex -3.549994949366117e-14 -38.53553390593274 44.96446609406729
    vertex -3.445044109515031e-14 -36.91341716182545 43.8806023374436
    vertex -3.498430900901621e-14 -37.777851165098014 44.3426519384873
  endloop
endfacet
facet normal -1 5.000000000000153e-16 -2.1999999999998945e-16
  outer loop
    vertex -3.549994949366117e-14 -38.53553390593274 44.96446609406729
    vertex -3.5977546774434806e-14 -39.15734806151273 45.72214883490202
    vertex -3.639874705567662e-14 -39.61939766255644 46.586582838174586
  endloop
endfacet
facet normal -1 2.999999999999996e-16 -5.714285714285714e-16
  outer loop
    vertex -3e-15 -10.000000000000002 6e-15
    vertex -2.5e-14 -9.999999999999988 38.500000000000014
    vertex 3e-15 10.000000000000002 -6e-15
  endloop
endfacet
facet normal 0 -0.09801714032955833 0.995184726672197
  outer loop
    vertex 9.999999999999941 -34.99999999999997 86.50000000000003
    vertex -5.8e-14 -34.99999999999997 86.50000000000003
    vertex -4.1566589613483875e-14 -35.97545161008062 86.40392640201618
  endloop
endfacet
facet normal 0 -0.09801714032955834 0.9951847266721972
  outer loop
    vertex 9.999999999999957 -35.97545161008062 86.40392640201618
    vertex 9.999999999999941 -34.99999999999997 86.50000000000003
    vertex -4.1566589613483875e-14 -35.97545161008062 86.40392640201618
  endloop
endfacet
facet normal 0 -0.2902846772544598 0.9569403357322096
  outer loop
    vertex 9.999999999999957 -36.91341716182543 86.11939766255647
    vertex -4.1566589613483875e-14 -35.97545161008062 86.40392640201618
    vertex -4.197297606667514e-14 -36.91341716182543 86.11939766255647
  endloop
endfacet
facet normal 0 -0.4713967368260041 0.8819212643483515
  outer loop
    vertex 9.999999999999957 -36.91341716182543 86.11939766255647
    vertex -4.197297606667514e-14 -36.91341716182543 86.11939766255647
    vertex -4.2303542156081804e-14 -37.77785116509799 85.65734806151275
  endloop
endfacet
facet normal 0 -0.29028467725445983 0.9569403357322097
  outer loop
    vertex 9.999999999999957 -36.91341716182543 86.11939766255647
    vertex 9.999999999999957 -35.97545161008062 86.40392640201618
    vertex -4.1566589613483875e-14 -35.97545161008062 86.40392640201618
  endloop
endfacet
facet normal -1.2532854957901768e-15 -0.4713967368259928 0.8819212643483575
  outer loop
    vertex 9.999999999999957 -37.77785116509799 85.65734806151276
    vertex 9.999999999999957 -36.91341716182543 86.11939766255647
    vertex -4.2303542156081804e-14 -37.77785116509799 85.65734806151275
  endloop
endfacet
facet normal -4.507635396774698e-16 -0.6343932841636434 0.7730104533627387
  outer loop
    vertex 9.999999999999957 -38.53553390593272 85.03553390593277
    vertex -4.2303542156081804e-14 -37.77785116509799 85.65734806151275
    vertex -4.254558441227157e-14 -38.535533905932716 85.03553390593277
  endloop
endfacet
facet normal -1.0987020538096729e-15 -0.6343932841636485 0.7730104533627344
  outer loop
    vertex 9.999999999999957 -38.53553390593272 85.03553390593277
    vertex 9.999999999999957 -37.77785116509799 85.65734806151276
    vertex -4.2303542156081804e-14 -37.77785116509799 85.65734806151275
  endloop
endfacet
facet normal 0 -0.7730104533627351 0.6343932841636477
  outer loop
    vertex 9.999999999999956 -39.15734806151271 84.27785116509804
    vertex -4.254558441227157e-14 -38.535533905932716 85.03553390593277
    vertex -4.268980128707793e-14 -39.15734806151271 84.27785116509804
  endloop
endfacet
facet normal -5.493510269048446e-16 -0.7730104533627387 0.6343932841636434
  outer loop
    vertex 9.999999999999956 -39.15734806151271 84.27785116509804
    vertex 9.999999999999957 -38.53553390593272 85.03553390593277
    vertex -4.254558441227157e-14 -38.535533905932716 85.03553390593277
  endloop
endfacet
facet normal 0 -0.8819212643483546 0.4713967368259985
  outer loop
    vertex 9.999999999999956 -39.619397662556416 83.41341716182548
    vertex -4.268980128707793e-14 -39.15734806151271 84.27785116509804
    vertex -4.2730650606879815e-14 -39.619397662556416 83.41341716182548
  endloop
endfacet
facet normal 0 -0.8819212643483546 0.4713967368259985
  outer loop
    vertex 9.999999999999956 -39.619397662556416 83.41341716182548
    vertex 9.999999999999956 -39.15734806151271 84.27785116509804
    vertex -4.268980128707793e-14 -39.15734806151271 84.27785116509804
  endloop
endfacet
facet normal -6.799470041103532e-16 -0.9569403357322097 0.29028467725445983
  outer loop
    vertex 9.999999999999956 -39.90392640201614 82.47545161008067
    vertex -4.2730650606879815e-14 -39.619397662556416 83.41341716182548
    vertex -4.266656255522582e-14 -39.90392640201613 82.47545161008067
  endloop
endfacet
facet normal -7.07121278276331e-16 -0.9951847266721977 0.09801714032955186
  outer loop
    vertex 9.999999999999956 -39.90392640201614 82.47545161008067
    vertex -4.266656255522582e-14 -39.90392640201613 82.47545161008067
    vertex -5.6e-14 -39.99999999999997 81.50000000000003
  endloop
endfacet
facet normal 0 -0.9569403357322076 0.29028467725446644
  outer loop
    vertex 9.999999999999956 -39.90392640201614 82.47545161008067
    vertex 9.999999999999956 -39.619397662556416 83.41341716182548
    vertex -4.2730650606879815e-14 -39.619397662556416 83.41341716182548
  endloop
endfacet
facet normal -7.071212782763309e-16 -0.9951847266721977 0.09801714032955187
  outer loop
    vertex 9.999999999999943 -39.99999999999998 81.50000000000003
    vertex 9.999999999999956 -39.90392640201614 82.47545161008067
    vertex -5.6e-14 -39.99999999999997 81.50000000000003
  endloop
endfacet
facet normal 3.482268352057361e-17 0.09801714032956002 0.995184726672197
  outer loop
    vertex 9.999999999999954 5.000000000000033 86.5
    vertex -2.061113800340323e-14 5.9754516100806665 86.40392640201615
    vertex -4.7e-14 5.000000000000036 86.5
  endloop
endfacet
facet normal 0 0.2902846772544608 0.9569403357322094
  outer loop
    vertex 9.99999999999998 5.9754516100806665 86.40392640201615
    vertex -2.007955890484969e-14 6.913417161825473 86.11939766255644
    vertex -2.061113800340323e-14 5.9754516100806665 86.40392640201615
  endloop
endfacet
facet normal 0 0.09801714032955967 0.995184726672197
  outer loop
    vertex 9.99999999999998 5.9754516100806665 86.40392640201615
    vertex -2.061113800340323e-14 5.9754516100806665 86.40392640201615
    vertex 9.999999999999954 5.000000000000033 86.5
  endloop
endfacet
facet normal 5.1564917181405663e-17 0.2902846772544613 0.9569403357322092
  outer loop
    vertex 9.99999999999998 6.913417161825471 86.11939766255644
    vertex -2.007955890484969e-14 6.913417161825473 86.11939766255644
    vertex 9.99999999999998 5.9754516100806665 86.40392640201615
  endloop
endfacet
facet normal 1.6747376350636672e-16 0.47139673682600486 0.8819212643483512
  outer loop
    vertex 9.99999999999998 7.777851165098031 85.65734806151272
    vertex -1.9545690990983795e-14 7.777851165098035 85.65734806151272
    vertex -2.007955890484969e-14 6.913417161825473 86.11939766255644
  endloop
endfacet
facet normal 8.495118972755263e-17 0.4713967368260056 0.8819212643483506
  outer loop
    vertex 9.99999999999998 7.777851165098031 85.65734806151272
    vertex -2.007955890484969e-14 6.913417161825473 86.11939766255644
    vertex 9.99999999999998 6.913417161825471 86.11939766255644
  endloop
endfacet
facet normal 3.3807265475810177e-16 0.6343932841636424 0.7730104533627394
  outer loop
    vertex 9.999999999999982 8.535533905932756 85.03553390593274
    vertex -1.9030050506338834e-14 8.53553390593276 85.03553390593274
    vertex -1.9545690990983795e-14 7.777851165098035 85.65734806151272
  endloop
endfacet
facet normal 2.265365059401421e-16 0.6343932841636434 0.7730104533627387
  outer loop
    vertex 9.999999999999982 8.535533905932756 85.03553390593274
    vertex -1.9545690990983795e-14 7.777851165098035 85.65734806151272
    vertex 9.99999999999998 7.777851165098031 85.65734806151272
  endloop
endfacet
facet normal 5.492569623035138e-16 0.773010453362736 0.6343932841636466
  outer loop
    vertex 9.999999999999982 9.157348061512742 84.27785116509801
    vertex -1.85524532255652e-14 9.15734806151275 84.27785116509801
    vertex -1.9030050506338834e-14 8.53553390593276 85.03553390593274
  endloop
endfacet
facet normal 4.1342912334075834e-16 0.773010453362737 0.6343932841636455
  outer loop
    vertex 9.999999999999982 9.157348061512742 84.27785116509801
    vertex -1.9030050506338834e-14 8.53553390593276 85.03553390593274
    vertex 9.999999999999982 8.535533905932756 85.03553390593274
  endloop
endfacet
facet normal -1.9991299310414065e-16 0.8819212643483554 0.4713967368259971
  outer loop
    vertex 9.999999999999982 9.619397662556452 83.41341716182546
    vertex -1.8131252944323383e-14 9.619397662556457 83.41341716182545
    vertex -1.85524532255652e-14 9.15734806151275 84.27785116509801
  endloop
endfacet
facet normal 6.229753913353941e-16 0.8819212643483513 0.47139673682600447
  outer loop
    vertex 9.999999999999982 9.619397662556452 83.41341716182546
    vertex -1.85524532255652e-14 9.15734806151275 84.27785116509801
    vertex 9.999999999999982 9.157348061512742 84.27785116509801
  endloop
endfacet
facet normal 3.399735020551759e-16 0.956940335732208 0.2902846772544655
  outer loop
    vertex 9.999999999999982 9.903926402016172 82.47545161008065
    vertex -1.7782636153209665e-14 9.903926402016175 82.47545161008065
    vertex -1.8131252944323383e-14 9.619397662556457 83.41341716182545
  endloop
endfacet
facet normal 9.62780150245596e-17 0.9569403357322086 0.2902846772544631
  outer loop
    vertex 9.999999999999982 9.903926402016172 82.47545161008065
    vertex -1.8131252944323383e-14 9.619397662556457 83.41341716182545
    vertex 9.999999999999982 9.619397662556452 83.41341716182546
  endloop
endfacet
facet normal 5.303409587072472e-16 0.9951847266721957 0.09801714032957198
  outer loop
    vertex 9.999999999999956 10.00000000000003 81.5
    vertex -4.2e-14 10.000000000000036 81.5
    vertex -1.7782636153209665e-14 9.903926402016175 82.47545161008065
  endloop
endfacet
facet normal 3.5254743736933934e-16 0.9951847266721958 0.0980171403295702
  outer loop
    vertex 9.999999999999956 10.00000000000003 81.5
    vertex -1.7782636153209665e-14 9.903926402016175 82.47545161008065
    vertex 9.999999999999982 9.903926402016172 82.47545161008065
  endloop
endfacet
facet normal 1 0 0
  outer loop
    vertex 9.999999999999982 9.619397662556452 83.41341716182546
    vertex 9.999999999999982 9.157348061512742 84.27785116509801
    vertex 9.999999999999982 8.535533905932756 85.03553390593274
  endloop
endfacet
facet normal 1 -4.044900382567494e-14 -1.3334249560490677e-13
  outer loop
    vertex 9.999999999999954 5.000000000000033 86.5
    vertex 9.99999999999998 6.913417161825471 86.11939766255644
    vertex 9.99999999999998 5.9754516100806665 86.40392640201615
  endloop
endfacet
facet normal 1 -4.47630097394489e-15 -8.374570093815394e-15
  outer loop
    vertex 9.999999999999956 10.00000000000003 81.5
    vertex 9.99999999999998 7.777851165098031 85.65734806151272
    vertex 9.99999999999998 6.913417161825471 86.11939766255644
  endloop
endfacet
facet normal 0.9999999999999999 -1.2922176067862714e-14 -1.2888984384363932e-14
  outer loop
    vertex 9.999999999999956 10.00000000000003 81.5
    vertex 9.999999999999982 8.535533905932756 85.03553390593274
    vertex 9.99999999999998 7.777851165098031 85.65734806151272
  endloop
endfacet
facet normal 1 -1.3334249560490963e-13 -4.0449003825676075e-14
  outer loop
    vertex 9.999999999999956 10.00000000000003 81.5
    vertex 9.999999999999982 9.903926402016172 82.47545161008065
    vertex 9.999999999999982 9.619397662556452 83.41341716182546
  endloop
endfacet
facet normal 1 -2.9675118854328195e-14 -1.9828280496178502e-14
  outer loop
    vertex 9.999999999999956 10.00000000000003 81.5
    vertex 9.999999999999982 9.619397662556452 83.41341716182546
    vertex 9.999999999999982 8.535533905932756 85.03553390593274
  endloop
endfacet
facet normal 0.9999999999999999 -1.729506725553253e-14 -1.6939795887652472e-14
  outer loop
    vertex 9.999999999999956 10.00000000000003 81.5
    vertex 9.99999999999998 6.913417161825471 86.11939766255644
    vertex 9.999999999999954 5.000000000000033 86.5
  endloop
endfacet
facet normal 0.9999999999999999 -7.105427357600984e-17 2.8421709430404023e-16
  outer loop
    vertex 9.999999999999956 -9.999999999999975 76.50000000000001
    vertex 9.999999999999956 10.00000000000003 81.5
    vertex 9.999999999999954 5.000000000000033 86.5
  endloop
endfacet
facet normal 1 -3.108624468950433e-16 6.439293542825913e-16
  outer loop
    vertex 9.999999999999941 -34.99999999999997 86.50000000000003
    vertex 9.999999999999956 -9.999999999999975 76.50000000000001
    vertex 9.999999999999954 5.000000000000033 86.5
  endloop
endfacet
facet normal 1 2.4269402295404542e-14 -8.000549736294314e-14
  outer loop
    vertex 9.999999999999957 -36.91341716182543 86.11939766255647
    vertex 9.999999999999941 -34.99999999999997 86.50000000000003
    vertex 9.999999999999957 -35.97545161008062 86.40392640201618
  endloop
endfacet
facet normal 1 1.3307591350577955e-14 -2.489675229479832e-14
  outer loop
    vertex 9.999999999999957 -37.77785116509799 85.65734806151276
    vertex 9.999999999999941 -34.99999999999997 86.50000000000003
    vertex 9.999999999999957 -36.91341716182543 86.11939766255647
  endloop
endfacet
facet normal 1 9.129931644800477e-15 -1.1124853897566524e-14
  outer loop
    vertex 9.999999999999957 -38.53553390593272 85.03553390593277
    vertex 9.999999999999941 -34.99999999999997 86.50000000000003
    vertex 9.999999999999957 -37.77785116509799 85.65734806151276
  endloop
endfacet
facet normal 1 8.321883581047274e-15 -9.174053303004215e-15
  outer loop
    vertex 9.999999999999956 -39.15734806151271 84.27785116509804
    vertex 9.999999999999941 -34.99999999999997 86.50000000000003
    vertex 9.999999999999957 -38.53553390593272 85.03553390593277
  endloop
endfacet
facet normal 1 -1.3515758560654048e-16 5.406303424261635e-16
  outer loop
    vertex 9.999999999999968 -9.999999999999984 53.50000000000002
    vertex 9.999999999999956 10.00000000000003 81.5
    vertex 9.999999999999956 -9.999999999999975 76.50000000000001
  endloop
endfacet
facet normal 1 0 0
  outer loop
    vertex 9.999999999999956 -39.90392640201614 82.47545161008067
    vertex 9.999999999999956 -39.15734806151271 84.27785116509804
    vertex 9.999999999999956 -39.619397662556416 83.41341716182548
  endloop
endfacet
facet normal 1 6.935404207710007e-15 -6.580132839829967e-15
  outer loop
    vertex 9.999999999999943 -39.99999999999998 81.50000000000003
    vertex 9.999999999999941 -34.99999999999997 86.50000000000003
    vertex 9.999999999999956 -39.15734806151271 84.27785116509804
  endloop
endfacet
facet normal 1 4.0375457700062264e-14 -1.6724062166387117e-14
  outer loop
    vertex 9.999999999999943 -39.99999999999998 81.50000000000003
    vertex 9.999999999999956 -39.15734806151271 84.27785116509804
    vertex 9.999999999999956 -39.90392640201614 82.47545161008067
  endloop
endfacet
facet normal 1 -2.9605947323337437e-16 6.809367884367635e-16
  outer loop
    vertex 9.999999999999947 -39.99999999999998 76.50000000000004
    vertex 9.999999999999956 -9.999999999999975 76.50000000000001
    vertex 9.999999999999941 -34.99999999999997 86.50000000000003
  endloop
endfacet
facet normal 1 -3.552713678800516e-16 7.105427357601022e-16
  outer loop
    vertex 9.999999999999947 -39.99999999999998 76.50000000000004
    vertex 9.999999999999941 -34.99999999999997 86.50000000000003
    vertex 9.999999999999943 -39.99999999999998 81.50000000000003
  endloop
endfacet
facet normal 1 -1.4314392746639957e-15 1.1125189097522347e-15
  outer loop
    vertex 9.999999999999977 -12.222148834901988 42.65734806151274
    vertex 9.999999999999979 -11.464466094067259 42.03553390593275
    vertex 9.999999999999968 -9.999999999999984 53.50000000000002
  endloop
endfacet
facet normal 1 9.802292790205212e-16 8.044533794414156e-16
  outer loop
    vertex 9.999999999999979 -10.842651938487268 41.27785116509803
    vertex 9.999999999999968 -9.999999999999984 53.50000000000002
    vertex 9.999999999999979 -11.464466094067259 42.03553390593275
  endloop
endfacet
facet normal 1 1.4450684839501103e-15 7.724051968828575e-16
  outer loop
    vertex 9.999999999999979 -10.380602337443563 40.413417161825464
    vertex 9.999999999999968 -9.999999999999984 53.50000000000002
    vertex 9.999999999999979 -10.842651938487268 41.27785116509803
  endloop
endfacet
facet normal 1 3.946175146151493e-16 7.382774428323189e-16
  outer loop
    vertex 9.999999999999977 -13.086582838174552 43.11939766255645
    vertex 9.999999999999977 -12.222148834901988 42.65734806151274
    vertex 9.999999999999968 -9.999999999999984 53.50000000000002
  endloop
endfacet
facet normal 1 -4.465058561929907e-16 7.630219642736283e-16
  outer loop
    vertex 9.999999999999979 -10.096073597983843 39.475451610080654
    vertex 9.999999999999956 10.00000000000003 81.5
    vertex 9.999999999999968 -9.999999999999984 53.50000000000002
  endloop
endfacet
facet normal 1 2.4499368159054336e-15 7.431802081524476e-16
  outer loop
    vertex 9.999999999999979 -10.096073597983843 39.475451610080654
    vertex 9.999999999999968 -9.999999999999984 53.50000000000002
    vertex 9.999999999999979 -10.380602337443563 40.413417161825464
  endloop
endfacet
facet normal 1 2.380738641279145e-16 7.84824351124549e-16
  outer loop
    vertex 9.999999999999977 -14.02454838991936 43.40392640201617
    vertex 9.999999999999977 -13.086582838174552 43.11939766255645
    vertex 9.999999999999968 -9.999999999999984 53.50000000000002
  endloop
endfacet
facet normal 1 7.268422523577462e-15 -2.926244772980156e-15
  outer loop
    vertex 9.999999999999975 -9.999999999999991 38.500000000000014
    vertex 9.999999999999956 10.00000000000003 81.5
    vertex 9.999999999999979 -10.096073597983843 39.475451610080654
  endloop
endfacet
facet normal 0.9999999999999999 -5.17342284748096e-15 2.94198279162053e-15
  outer loop
    vertex 9.999999999999972 -14.999999999999988 43.500000000000014
    vertex 9.999999999999977 -14.02454838991936 43.40392640201617
    vertex 9.999999999999968 -9.999999999999984 53.50000000000002
  endloop
endfacet
facet normal 1 -2.413883680534692e-16 5.666905254528408e-16
  outer loop
    vertex 10.000000000000002 9.999999999999998 -1.7763568394002505e-15
    vertex 9.999999999999956 10.00000000000003 81.5
    vertex 9.999999999999975 -9.999999999999991 38.500000000000014
  endloop
endfacet
facet normal 1 7.105427357601007e-16 1.0658141036401493e-15
  outer loop
    vertex 9.999999999999966 -35 43.500000000000036
    vertex 9.99999999999996 -39.99999999999999 53.50000000000004
    vertex 9.999999999999964 -40 48.50000000000004
  endloop
endfacet
facet normal 1 -2.960594732333746e-16 5.625129991434126e-16
  outer loop
    vertex 9.999999999999966 -35 43.500000000000036
    vertex 9.999999999999968 -9.999999999999984 53.50000000000002
    vertex 9.99999999999996 -39.99999999999999 53.50000000000004
  endloop
endfacet
facet normal 0.9999999999999999 -2.664535259100368e-16 4.884981308350681e-16
  outer loop
    vertex 9.999999999999966 -35 43.500000000000036
    vertex 9.999999999999972 -14.999999999999988 43.500000000000014
    vertex 9.999999999999968 -9.999999999999984 53.50000000000002
  endloop
endfacet
facet normal 1 -4.434862721796874e-16 -8.821490429963711e-17
  outer loop
    vertex 9.999999999999964 -39.61939766255645 46.5865828381746
    vertex 9.999999999999966 -35 43.500000000000036
    vertex 9.999999999999964 -40 48.50000000000004
  endloop
endfacet
facet normal 0.9999999999999999 6.648240165032644e-17 6.750071517332385e-16
  outer loop
    vertex 9.999999999999964 -39.61939766255645 46.5865828381746
    vertex 9.999999999999966 -35.97545161008066 43.59607359798388
    vertex 9.999999999999966 -35 43.500000000000036
  endloop
endfacet
facet normal 1 0 0
  outer loop
    vertex 9.999999999999964 -39.61939766255645 46.5865828381746
    vertex 9.999999999999964 -40 48.50000000000004
    vertex 9.999999999999964 -39.90392640201616 47.5245483899194
  endloop
endfacet
facet normal 1 -8.684279531938099e-16 -4.641844117530415e-16
  outer loop
    vertex 9.999999999999964 -39.15734806151274 45.72214883490203
    vertex 9.999999999999966 -35.97545161008066 43.59607359798388
    vertex 9.999999999999964 -39.61939766255645 46.5865828381746
  endloop
endfacet
facet normal 1 4.641844117530331e-16 1.5302109330256814e-15
  outer loop
    vertex 9.999999999999964 -39.15734806151274 45.72214883490203
    vertex 9.999999999999966 -36.91341716182547 43.8806023374436
    vertex 9.999999999999966 -35.97545161008066 43.59607359798388
  endloop
endfacet
facet normal 1 4.379041197679399e-15 8.192609850662678e-15
  outer loop
    vertex 9.999999999999964 -38.53553390593276 44.964466094067305
    vertex 9.999999999999966 -37.77785116509803 44.34265193848731
    vertex 9.999999999999966 -36.91341716182547 43.8806023374436
  endloop
endfacet
facet normal 1 -2.4246873220822414e-15 -1.989889459624025e-15
  outer loop
    vertex 9.999999999999964 -38.53553390593276 44.964466094067305
    vertex 9.999999999999966 -36.91341716182547 43.8806023374436
    vertex 9.999999999999964 -39.15734806151274 45.72214883490203
  endloop
endfacet
facet normal 1 -1.7763568394002466e-16 5.998088029143705e-16
  outer loop
    vertex 9.999999999999998 -10.000000000000005 1.0658141036401503e-14
    vertex 10.000000000000002 9.999999999999998 -1.7763568394002505e-15
    vertex 9.999999999999975 -9.999999999999991 38.500000000000014
  endloop
endfacet
facet normal -7.105427357601001e-16 -1 -5.04870979341449e-31
  outer loop
    vertex -5.3e-14 -39.99999999999997 76.50000000000004
    vertex 9.999999999999947 -39.99999999999998 76.50000000000004
    vertex 9.999999999999943 -39.99999999999998 81.50000000000003
  endloop
endfacet
facet normal -7.105427357601001e-16 -1 -4.263256414560613e-31
  outer loop
    vertex -5.6e-14 -39.99999999999997 81.50000000000003
    vertex -5.3e-14 -39.99999999999997 76.50000000000004
    vertex 9.999999999999943 -39.99999999999998 81.50000000000003
  endloop
endfacet
facet normal 5.329070518200752e-16 1 -4.141199993693832e-16
  outer loop
    vertex 3e-15 10.000000000000002 -6e-15
    vertex -4.2e-14 10.000000000000036 81.5
    vertex 9.999999999999956 10.00000000000003 81.5
  endloop
endfacet
facet normal 3.552713678800503e-16 0.9999999999999999 -3.9232420992888943e-16
  outer loop
    vertex 3e-15 10.000000000000002 -6e-15
    vertex 9.999999999999956 10.00000000000003 81.5
    vertex 10.000000000000002 9.999999999999998 -1e-15
  endloop
endfacet
facet normal -3.3658065289429826e-31 -9.473903143468e-16 -1
  outer loop
    vertex 9.999999999999947 -39.99999999999998 76.50000000000004
    vertex -4.6e-14 -9.999999999999972 76.50000000000001
    vertex 9.999999999999956 -9.999999999999975 76.50000000000001
  endloop
endfacet
facet normal -6.731613057885968e-31 -9.473903143468002e-16 -1
  outer loop
    vertex -5.3e-14 -39.99999999999997 76.50000000000004
    vertex -4.6e-14 -9.999999999999972 76.50000000000001
    vertex 9.999999999999947 -39.99999999999998 76.50000000000004
  endloop
endfacet
facet normal 3.5513826840477714e-18 -1.9430524578716632e-16 -0.9999999999999999
  outer loop
    vertex 7.304354824502237 1.5905812908472372 6.244209016105225e-16
    vertex 6.856743443074226 2.0958300948790836 5.246587692502566e-16
    vertex 10.000000000000002 9.999999999999998 -1e-15
  endloop
endfacet
facet normal 3.599913297585221e-17 -2.0720876444712414e-16 -1
  outer loop
    vertex 6.301224881722551 2.4792768718289877 4.252070498065819e-16
    vertex 10.000000000000002 9.999999999999998 -1e-15
    vertex 6.856743443074226 2.0958300948790836 5.246587692502566e-16
  endloop
endfacet
facet normal -4.1914789086312845e-17 -1.7973103194195363e-16 -1
  outer loop
    vertex 7.618045479519161 0.9928936837191007 7.186956343751977e-16
    vertex 7.304354824502237 1.5905812908472372 6.244209016105225e-16
    vertex 10.000000000000002 9.999999999999998 -1e-15
  endloop
endfacet
facet normal 6.409976682299208e-17 -2.2102896810444229e-16 -1
  outer loop
    vertex 5.670083860005161 2.7186370887929456 3.318455157212732e-16
    vertex 10.000000000000002 9.999999999999998 -1e-15
    vertex 6.301224881722551 2.4792768718289877 4.252070498065819e-16
  endloop
endfacet
facet normal -1.2468022498757788e-16 -1.5784348035080204e-16 -1
  outer loop
    vertex 7.779584847474551 0.3375027047149056 8.020040627507101e-16
    vertex 7.618045479519161 0.9928936837191007 7.186956343751977e-16
    vertex 10.000000000000002 9.999999999999998 -1e-15
  endloop
endfacet
facet normal 4.999999999999998e-16 -4.861111111111111e-16 -1
  outer loop
    vertex 5.000000000000001 2.799999999999998 0
    vertex 3e-15 10.000000000000002 -6e-15
    vertex 10.000000000000002 9.999999999999998 -1e-15
  endloop
endfacet
facet normal 4.41166171089433e-16 -4.45254285478773e-16 -1
  outer loop
    vertex 5.000000000000001 2.799999999999998 0
    vertex 10.000000000000002 9.999999999999998 -1e-15
    vertex 5.670083860005161 2.7186370887929456 3.318455157212732e-16
  endloop
endfacet
facet normal -3.7639552777850244e-16 -9.999999999999996e-17 -1
  outer loop
    vertex 7.779584847474551 -0.33750270471490346 8.69504603693691e-16
    vertex 7.779584847474551 0.3375027047149056 8.020040627507101e-16
    vertex 10.000000000000002 9.999999999999998 -1e-15
  endloop
endfacet
facet normal -1.605104688314664e-16 -9.447989366885176e-16 -1
  outer loop
    vertex 4.329916139994828 2.718637088792943 1.844270665201369e-16
    vertex 3e-15 10.000000000000002 -6e-15
    vertex 5.000000000000001 2.799999999999998 0
  endloop
endfacet
facet normal 3.216510752050938e-16 -6.580780195927047e-16 -1
  outer loop
    vertex 3.6987751182774393 2.4792768718289833 1.3893757582762005e-16
    vertex 3e-15 10.000000000000002 -6e-15
    vertex 4.329916139994828 2.718637088792943 1.844270665201369e-16
  endloop
endfacet
facet normal 4.512262201669067e-16 -5.943515249506262e-16 -0.9999999999999999
  outer loop
    vertex 3.143256556925767 2.0958300948790765 1.1617521177392672e-16
    vertex 3e-15 10.000000000000002 -6e-15
    vertex 3.6987751182774393 2.4792768718289833 1.3893757582762005e-16
  endloop
endfacet
facet normal 6.008464020680035e-16 -5.348519666852663e-16 -1
  outer loop
    vertex 2.695645175497757 1.5905812908472292 1.1746284022003044e-16
    vertex 3e-15 10.000000000000002 -6e-15
    vertex 3.143256556925767 2.0958300948790765 1.1617521177392672e-16
  endloop
endfacet
facet normal 8.104959718980017e-16 -4.676486472878961e-16 -1
  outer loop
    vertex 2.3819545204808357 0.9928936837190921 1.4272562888098271e-16
    vertex 3e-15 10.000000000000002 -6e-15
    vertex 2.695645175497757 1.5905812908472292 1.1746284022003044e-16
  endloop
endfacet
facet normal 1.192136592998284e-15 -3.667227149509183e-16 -1
  outer loop
    vertex 2.2204151525254483 0.3375027047148973 1.904953963063096e-16
    vertex 3e-15 10.000000000000002 -6e-15
    vertex 2.3819545204808357 0.9928936837190921 1.4272562888098271e-16
  endloop
endfacet
facet normal 1.8309883165755695e-15 -5.241855225725487e-16 -0.9999999999999999
  outer loop
    vertex 9.999999999999998 -10.000000000000005 1e-14
    vertex 7.618045479519161 -0.9928936837190987 9.172743711190177e-16
    vertex 7.779584847474551 -0.33750270471490346 8.69504603693691e-16
  endloop
endfacet
facet normal 1.224041786632963e-15 -6.846942342409924e-16 -1
  outer loop
    vertex 9.999999999999998 -10.000000000000005 1e-14
    vertex 7.304354824502239 -1.5905812908472352 9.425371597799698e-16
    vertex 7.618045479519161 -0.9928936837190987 9.172743711190177e-16
  endloop
endfacet
facet normal 8.90623193650315e-16 -7.915718024392187e-16 -1
  outer loop
    vertex 9.999999999999998 -10.000000000000005 1e-14
    vertex 6.856743443074228 -2.095830094879082 9.438247882260732e-16
    vertex 7.304354824502239 -1.5905812908472352 9.425371597799698e-16
  endloop
endfacet
facet normal 6.526730248437501e-16 -8.861976059455753e-16 -1
  outer loop
    vertex 9.999999999999998 -10.000000000000005 1e-14
    vertex 6.301224881722554 -2.479276871828987 9.210624241723796e-16
    vertex 6.856743443074228 -2.095830094879082 9.438247882260732e-16
  endloop
endfacet
facet normal 4.466017099647267e-16 -9.87545766099242e-16 -1
  outer loop
    vertex 9.999999999999998 -10.000000000000005 1e-14
    vertex 5.670083860005164 -2.7186370887929447 8.755729334798626e-16
    vertex 6.301224881722554 -2.479276871828987 9.210624241723796e-16
  endloop
endfacet
facet normal 2.3317773381616747e-16 -1.1144599070721057e-15 -1
  outer loop
    vertex 9.999999999999998 -10.000000000000005 1e-14
    vertex 5.0000000000000036 -2.8 8.100000000000003e-16
    vertex 5.670083860005164 -2.7186370887929447 8.755729334798626e-16
  endloop
endfacet
facet normal 1.7186524238762897e-15 -5.500000000000002e-16 -0.9999999999999999
  outer loop
    vertex 9.999999999999998 -10.000000000000005 1e-14
    vertex 7.779584847474551 -0.33750270471490346 8.69504603693691e-16
    vertex 10.000000000000002 9.999999999999998 -1e-15
  endloop
endfacet
facet normal 3.192522427308741e-17 -7.430036279674212e-16 -1
  outer loop
    vertex -3e-15 -10.000000000000002 6e-15
    vertex 4.329916139994842 -2.7186370887929465 7.281544842787273e-16
    vertex 5.0000000000000036 -2.8 8.100000000000003e-16
  endloop
endfacet
facet normal -1.0335108384127626e-16 -6.625605739669449e-16 -1
  outer loop
    vertex -3e-15 -10.000000000000002 6e-15
    vertex 3.698775118277452 -2.4792768718289895 6.347929501934187e-16
    vertex 4.329916139994842 -2.7186370887929465 7.281544842787273e-16
  endloop
endfacet
facet normal -2.339669930196489e-16 -5.98322219930151e-16 -1
  outer loop
    vertex -3e-15 -10.000000000000002 6e-15
    vertex 3.1432565569257775 -2.0958300948790867 5.353412307497442e-16
    vertex 3.698775118277452 -2.4792768718289895 6.347929501934187e-16
  endloop
endfacet
facet normal -3.8478894345007324e-16 -5.383447535662731e-16 -0.9999999999999999
  outer loop
    vertex -3e-15 -10.000000000000002 6e-15
    vertex 2.6956451754977655 -1.5905812908472408 4.3557909838947827e-16
    vertex 3.1432565569257775 -2.0958300948790867 5.353412307497442e-16
  endloop
endfacet
facet normal -5.961224455678596e-16 -4.706016484709317e-16 -1
  outer loop
    vertex -3e-15 -10.000000000000002 6e-15
    vertex 2.381954520480841 -0.9928936837191055 3.4130436562480313e-16
    vertex 2.6956451754977655 -1.5905812908472408 4.3557909838947827e-16
  endloop
endfacet
facet normal -9.80828453182993e-16 -3.6886506607502534e-16 -1
  outer loop
    vertex -3e-15 -10.000000000000002 6e-15
    vertex 2.2204151525254496 -0.33750270471491123 2.5799593724929063e-16
    vertex 2.381954520480841 -0.9928936837191055 3.4130436562480313e-16
  endloop
endfacet
facet normal 3.999999999999996e-16 -9.986111111111108e-16 -1
  outer loop
    vertex -3e-15 -10.000000000000002 6e-15
    vertex 5.0000000000000036 -2.8 8.100000000000003e-16
    vertex 9.999999999999998 -10.000000000000005 1e-14
  endloop
endfacet
facet normal 1.7699258568302537e-16 -6.000000000000001e-16 -1
  outer loop
    vertex -3e-15 -10.000000000000002 6e-15
    vertex 3e-15 10.000000000000002 -6e-15
    vertex 2.2204151525254483 0.3375027047148973 1.904953963063096e-16
  endloop
endfacet
facet normal -2.1508384717111662e-15 -1.0000000000000451e-16 -1
  outer loop
    vertex -3e-15 -10.000000000000002 6e-15
    vertex 2.2204151525254483 0.3375027047148973 1.904953963063096e-16
    vertex 2.2204151525254496 -0.33750270471491123 2.5799593724929063e-16
  endloop
endfacet
facet normal -3.5527136788005026e-16 -0.9999999999999999 3.86164530304402e-16
  outer loop
    vertex -4.6e-14 -9.999999999999972 76.50000000000001
    vertex -3.3e-14 -9.99999999999998 53.500000000000014
    vertex 9.999999999999968 -9.999999999999984 53.50000000000002
  endloop
endfacet
facet normal -3.5527136788005006e-16 -1 3.8616453030440226e-16
  outer loop
    vertex -4.6e-14 -9.999999999999972 76.50000000000001
    vertex 9.999999999999968 -9.999999999999984 53.50000000000002
    vertex 9.999999999999956 -9.999999999999975 76.50000000000001
  endloop
endfacet
facet normal -3.552713678800499e-16 -0.9999999999999999 3.69113109485766e-16
  outer loop
    vertex 9.999999999999975 -9.999999999999991 38.500000000000014
    vertex -3e-15 -10.000000000000002 6e-15
    vertex 9.999999999999998 -10.000000000000005 1e-14
  endloop
endfacet
facet normal -3.552713678800501e-16 -1 3.6911310948576606e-16
  outer loop
    vertex -2.5e-14 -9.999999999999988 38.500000000000014
    vertex -3e-15 -10.000000000000002 6e-15
    vertex 9.999999999999975 -9.999999999999991 38.500000000000014
  endloop
endfacet
facet normal -7.105427357600997e-16 7.105427357601003e-16 1
  outer loop
    vertex -3.3e-14 -9.99999999999998 53.500000000000014
    vertex -4.1e-14 -39.999999999999986 53.500000000000036
    vertex 9.99999999999996 -39.99999999999999 53.50000000000004
  endloop
endfacet
facet normal -7.105427357600999e-16 7.105427357601003e-16 1
  outer loop
    vertex -3.3e-14 -9.99999999999998 53.500000000000014
    vertex 9.99999999999996 -39.99999999999999 53.50000000000004
    vertex 9.999999999999968 -9.999999999999984 53.50000000000002
  endloop
endfacet
facet normal -3.5356063913816503e-16 -0.9951847266721965 -0.09801714032956443
  outer loop
    vertex 9.999999999999979 -10.096073597983843 39.475451610080654
    vertex -2.0612636153209664e-14 -10.096073597983839 39.475451610080654
    vertex -2.5e-14 -9.999999999999988 38.500000000000014
  endloop
endfacet
facet normal -3.525474373693447e-16 -0.9951847266721965 -0.09801714032956443
  outer loop
    vertex 9.999999999999979 -10.096073597983843 39.475451610080654
    vertex -2.5e-14 -9.999999999999988 38.500000000000014
    vertex 9.999999999999975 -9.999999999999991 38.500000000000014
  endloop
endfacet
facet normal -3.399735020551761e-16 -0.9569403357322086 -0.2902846772544631
  outer loop
    vertex 9.999999999999979 -10.380602337443563 40.413417161825464
    vertex -2.0961252944323382e-14 -10.380602337443559 40.413417161825464
    vertex -2.0612636153209664e-14 -10.096073597983839 39.475451610080654
  endloop
endfacet
facet normal -3.398047589102104e-16 -0.9569403357322086 -0.2902846772544631
  outer loop
    vertex 9.999999999999979 -10.380602337443563 40.413417161825464
    vertex -2.0612636153209664e-14 -10.096073597983839 39.475451610080654
    vertex 9.999999999999979 -10.096073597983843 39.475451610080654
  endloop
endfacet
facet normal -3.133213739475437e-16 -0.881921264348356 -0.47139673682599564
  outer loop
    vertex 9.999999999999979 -10.842651938487268 41.27785116509803
    vertex -2.13824532255652e-14 -10.842651938487265 41.27785116509803
    vertex -2.0961252944323382e-14 -10.380602337443559 40.413417161825464
  endloop
endfacet
facet normal -3.1715110831619714e-16 -0.881921264348356 -0.47139673682599564
  outer loop
    vertex 9.999999999999979 -10.842651938487268 41.27785116509803
    vertex -2.0961252944323382e-14 -10.380602337443559 40.413417161825464
    vertex 9.999999999999979 -10.380602337443563 40.413417161825464
  endloop
endfacet
facet normal -2.7462848115175656e-16 -0.7730104533627351 -0.6343932841636477
  outer loop
    vertex 9.999999999999979 -11.464466094067259 42.03553390593275
    vertex -2.1860050506338833e-14 -11.464466094067255 42.03553390593275
    vertex -2.13824532255652e-14 -10.842651938487265 41.27785116509803
  endloop
endfacet
facet normal -2.718438071281693e-16 -0.7730104533627351 -0.6343932841636477
  outer loop
    vertex 9.999999999999979 -11.464466094067259 42.03553390593275
    vertex -2.13824532255652e-14 -10.842651938487265 41.27785116509803
    vertex 9.999999999999979 -10.842651938487268 41.27785116509803
  endloop
endfacet
facet normal -2.253817698387355e-16 -0.634393284163645 -0.7730104533627373
  outer loop
    vertex 9.999999999999977 -12.222148834901988 42.65734806151274
    vertex -2.2375690990983794e-14 -12.222148834901985 42.65734806151274
    vertex -2.1860050506338833e-14 -11.464466094067255 42.03553390593275
  endloop
endfacet
facet normal -1.6747376350636448e-16 -0.47139673682599853 -0.8819212643483546
  outer loop
    vertex 9.999999999999977 -12.222148834901988 42.65734806151274
    vertex -2.2909558904849694e-14 -13.086582838174548 43.11939766255645
    vertex -2.2375690990983794e-14 -12.222148834901985 42.65734806151274
  endloop
endfacet
facet normal -2.265365059401401e-16 -0.634393284163645 -0.7730104533627373
  outer loop
    vertex 9.999999999999977 -12.222148834901988 42.65734806151274
    vertex -2.1860050506338833e-14 -11.464466094067255 42.03553390593275
    vertex 9.999999999999979 -11.464466094067259 42.03553390593275
  endloop
endfacet
facet normal -1.6747376350636448e-16 -0.47139673682599853 -0.8819212643483546
  outer loop
    vertex 9.999999999999977 -13.086582838174552 43.11939766255645
    vertex -2.2909558904849694e-14 -13.086582838174548 43.11939766255645
    vertex 9.999999999999977 -12.222148834901988 42.65734806151274
  endloop
endfacet
facet normal -1.0312983436281097e-16 -0.2902846772544603 -0.9569403357322094
  outer loop
    vertex 9.999999999999977 -14.02454838991936 43.40392640201617
    vertex -2.3441138003403237e-14 -14.024548389919357 43.40392640201617
    vertex -2.2909558904849694e-14 -13.086582838174548 43.11939766255645
  endloop
endfacet
facet normal -1.0194142767306339e-16 -0.2902846772544603 -0.9569403357322094
  outer loop
    vertex 9.999999999999977 -14.02454838991936 43.40392640201617
    vertex -2.2909558904849694e-14 -13.086582838174548 43.11939766255645
    vertex 9.999999999999977 -13.086582838174552 43.11939766255645
  endloop
endfacet
facet normal -3.482268352057371e-17 -0.0980171403295603 -0.9951847266721969
  outer loop
    vertex 9.999999999999972 -14.999999999999988 43.500000000000014
    vertex -2.8e-14 -14.999999999999984 43.500000000000014
    vertex -2.3441138003403237e-14 -14.024548389919357 43.40392640201617
  endloop
endfacet
facet normal -3.5396329053147525e-17 -0.0980171403295603 -0.9951847266721969
  outer loop
    vertex 9.999999999999972 -14.999999999999988 43.500000000000014
    vertex -2.3441138003403237e-14 -14.024548389919357 43.40392640201617
    vertex 9.999999999999977 -14.02454838991936 43.40392640201617
  endloop
endfacet
facet normal -7.105427357601011e-16 -1 1.4210854715201997e-15
  outer loop
    vertex -3.8e-14 -39.99999999999999 48.500000000000036
    vertex 9.999999999999964 -40 48.50000000000004
    vertex 9.99999999999996 -39.99999999999999 53.50000000000004
  endloop
endfacet
facet normal -7.105427357601012e-16 -1 1.4210854715201999e-15
  outer loop
    vertex -4.1e-14 -39.999999999999986 53.500000000000036
    vertex -3.8e-14 -39.99999999999999 48.500000000000036
    vertex 9.99999999999996 -39.99999999999999 53.50000000000004
  endloop
endfacet
facet normal 0 -1.0658141036401496e-15 -1
  outer loop
    vertex 9.999999999999966 -35 43.500000000000036
    vertex -2.8e-14 -14.999999999999984 43.500000000000014
    vertex 9.999999999999972 -14.999999999999988 43.500000000000014
  endloop
endfacet
facet normal -7.573064690121711e-31 -1.0658141036401498e-15 -1
  outer loop
    vertex -3.4e-14 -34.99999999999999 43.500000000000036
    vertex -2.8e-14 -14.999999999999984 43.500000000000014
    vertex 9.999999999999966 -35 43.500000000000036
  endloop
endfacet
facet normal -6.964536704114093e-17 -0.09801714032955117 -0.9951847266721978
  outer loop
    vertex 9.999999999999966 -35 43.500000000000036
    vertex -3.391886199659677e-14 -35.97545161008064 43.596073597983874
    vertex -3.4e-14 -34.99999999999999 43.500000000000036
  endloop
endfacet
facet normal 6.116799793347264e-17 -0.29028467725446644 -0.9569403357322076
  outer loop
    vertex 9.999999999999966 -35.97545161008066 43.59607359798388
    vertex -3.445044109515031e-14 -36.91341716182545 43.8806023374436
    vertex -3.391886199659677e-14 -35.97545161008064 43.596073597983874
  endloop
endfacet
facet normal 4.981851771528955e-16 -0.09801714032955693 -0.9951847266721973
  outer loop
    vertex 9.999999999999966 -35.97545161008066 43.59607359798388
    vertex -3.391886199659677e-14 -35.97545161008064 43.596073597983874
    vertex 9.999999999999966 -35 43.500000000000036
  endloop
endfacet
facet normal -1.0048425810381746e-15 -0.4713967368259928 -0.8819212643483575
  outer loop
    vertex 9.999999999999966 -36.91341716182547 43.8806023374436
    vertex -3.498430900901621e-14 -37.777851165098014 44.3426519384873
    vertex -3.445044109515031e-14 -36.91341716182545 43.8806023374436
  endloop
endfacet
facet normal -6.187790061768648e-16 -0.2902846772544598 -0.9569403357322096
  outer loop
    vertex 9.999999999999966 -36.91341716182547 43.8806023374436
    vertex -3.445044109515031e-14 -36.91341716182545 43.8806023374436
    vertex 9.999999999999966 -35.97545161008066 43.59607359798388
  endloop
endfacet
facet normal -3.522701170514325e-16 -0.6343932841636476 -0.7730104533627351
  outer loop
    vertex 9.999999999999966 -37.77785116509803 44.34265193848731
    vertex -3.549994949366117e-14 -38.53553390593274 44.96446609406729
    vertex -3.498430900901621e-14 -37.777851165098014 44.3426519384873
  endloop
endfacet
facet normal -4.3252306130376884e-17 -0.4713967368260015 -0.8819212643483529
  outer loop
    vertex 9.999999999999966 -37.77785116509803 44.34265193848731
    vertex -3.498430900901621e-14 -37.777851165098014 44.3426519384873
    vertex 9.999999999999966 -36.91341716182547 43.8806023374436
  endloop
endfacet
facet normal -7.462438075556049e-16 -0.7730104533627379 -0.634393284163644
  outer loop
    vertex 9.999999999999964 -38.53553390593276 44.964466094067305
    vertex -3.5977546774434806e-14 -39.15734806151273 45.72214883490202
    vertex -3.549994949366117e-14 -38.53553390593274 44.96446609406729
  endloop
endfacet
facet normal -2.537766944253949e-16 -0.6343932841636485 -0.7730104533627344
  outer loop
    vertex 9.999999999999964 -38.53553390593276 44.964466094067305
    vertex -3.549994949366117e-14 -38.53553390593274 44.96446609406729
    vertex 9.999999999999966 -37.77785116509803 44.34265193848731
  endloop
endfacet
facet normal -9.183379687774439e-16 -0.8819212643483546 -0.47139673682599853
  outer loop
    vertex 9.999999999999964 -39.15734806151274 45.72214883490203
    vertex -3.639874705567662e-14 -39.61939766255644 46.586582838174586
    vertex -3.5977546774434806e-14 -39.15734806151273 45.72214883490202
  endloop
endfacet
facet normal -6.477503849295616e-16 -0.7730104533627387 -0.6343932841636434
  outer loop
    vertex 9.999999999999964 -39.15734806151274 45.72214883490203
    vertex -3.5977546774434806e-14 -39.15734806151273 45.72214883490202
    vertex 9.999999999999964 -38.53553390593276 44.964466094067305
  endloop
endfacet
facet normal -9.473746707694628e-16 -0.9569403357322096 -0.2902846772544598
  outer loop
    vertex 9.999999999999964 -39.61939766255645 46.5865828381746
    vertex -3.674736384679034e-14 -39.903926402016154 47.524548389919396
    vertex -3.639874705567662e-14 -39.61939766255644 46.586582838174586
  endloop
endfacet
facet normal -5.833904417647215e-16 -0.8819212643483563 -0.4713967368259955
  outer loop
    vertex 9.999999999999964 -39.61939766255645 46.5865828381746
    vertex -3.639874705567662e-14 -39.61939766255644 46.586582838174586
    vertex 9.999999999999964 -39.15734806151274 45.72214883490203
  endloop
endfacet
facet normal -6.374759112351894e-16 -0.9951847266721978 -0.09801714032955187
  outer loop
    vertex 9.999999999999964 -39.90392640201616 47.5245483899194
    vertex -3.8e-14 -39.99999999999999 48.500000000000036
    vertex -3.674736384679034e-14 -39.903926402016154 47.524548389919396
  endloop
endfacet
facet normal -4.736873353847355e-16 -0.9569403357322109 -0.2902846772544551
  outer loop
    vertex 9.999999999999964 -39.90392640201616 47.5245483899194
    vertex -3.674736384679034e-14 -39.903926402016154 47.524548389919396
    vertex 9.999999999999964 -39.61939766255645 46.5865828381746
  endloop
endfacet
facet normal -6.374759112351894e-16 -0.9951847266721978 -0.09801714032955187
  outer loop
    vertex 9.999999999999964 -40 48.50000000000004
    vertex -3.8e-14 -39.99999999999999 48.500000000000036
    vertex 9.999999999999964 -39.90392640201616 47.5245483899194
  endloop
endfacet
facet normal -0.1205366802553205 -0.9927088740980542 4.086204774466987e-16
  outer loop
    vertex 5.670083860005161 2.7186370887929456 3.318455157212732e-16
    vertex 4.999999999999996 2.800000000000007 20
    vertex 5.000000000000001 2.799999999999998 0
  endloop
endfacet
facet normal -0.12053668025532577 -0.9927088740980538 2.2986955889627735e-16
  outer loop
    vertex 5.670083860005161 2.7186370887929456 3.318455157212732e-16
    vertex 5.67008386000517 2.718637088792949 19.999999999999993
    vertex 4.999999999999996 2.800000000000007 20
  endloop
endfacet
facet normal -0.3546048870425374 -0.9350162426854143 2.6128386019847624e-16
  outer loop
    vertex 6.301224881722551 2.4792768718289877 4.252070498065819e-16
    vertex 6.30122488172256 2.47927687182899 19.999999999999993
    vertex 5.67008386000517 2.718637088792949 19.999999999999993
  endloop
endfacet
facet normal -0.5680647467311539 -0.8229838658936577 3.4364098820053034e-16
  outer loop
    vertex 6.301224881722551 2.4792768718289877 4.252070498065819e-16
    vertex 6.856743443074235 2.095830094879087 19.999999999999993
    vertex 6.30122488172256 2.47927687182899 19.999999999999993
  endloop
endfacet
facet normal -0.35460488704253573 -0.9350162426854149 3.2278447778179425e-16
  outer loop
    vertex 6.301224881722551 2.4792768718289877 4.252070498065819e-16
    vertex 5.67008386000517 2.718637088792949 19.999999999999993
    vertex 5.670083860005161 2.7186370887929456 3.318455157212732e-16
  endloop
endfacet
facet normal -0.5680647467311554 -0.8229838658936568 3.9846272640914043e-16
  outer loop
    vertex 6.856743443074226 2.0958300948790836 5.246587692502566e-16
    vertex 6.856743443074235 2.095830094879087 19.999999999999993
    vertex 6.301224881722551 2.4792768718289877 4.252070498065819e-16
  endloop
endfacet
facet normal -0.7485107481711014 -0.6631226582407946 4.207512319191321e-16
  outer loop
    vertex 7.304354824502237 1.5905812908472372 6.244209016105225e-16
    vertex 7.304354824502246 1.5905812908472399 19.999999999999993
    vertex 6.856743443074235 2.095830094879087 19.999999999999993
  endloop
endfacet
facet normal -0.8854560256532095 -0.46472317204376945 4.551350306708904e-16
  outer loop
    vertex 7.304354824502237 1.5905812908472372 6.244209016105225e-16
    vertex 7.6180454795191705 0.9928936837191031 19.999999999999993
    vertex 7.304354824502246 1.5905812908472399 19.999999999999993
  endloop
endfacet
facet normal -0.748510748171101 -0.6631226582407954 4.502535072242864e-16
  outer loop
    vertex 7.304354824502237 1.5905812908472372 6.244209016105225e-16
    vertex 6.856743443074235 2.095830094879087 19.999999999999993
    vertex 6.856743443074226 2.0958300948790836 5.246587692502566e-16
  endloop
endfacet
facet normal -0.9709418174260522 -0.23931566428755688 5.035295766332376e-16
  outer loop
    vertex 7.618045479519161 0.9928936837191007 7.186956343751977e-16
    vertex 7.77958484747456 0.3375027047149075 19.999999999999993
    vertex 7.6180454795191705 0.9928936837191031 19.999999999999993
  endloop
endfacet
facet normal -0.8854560256532099 -0.46472317204376856 4.892977136930232e-16
  outer loop
    vertex 7.618045479519161 0.9928936837191007 7.186956343751977e-16
    vertex 7.6180454795191705 0.9928936837191031 19.999999999999993
    vertex 7.304354824502237 1.5905812908472372 6.244209016105225e-16
  endloop
endfacet
facet normal -0.9709418174260518 -0.2393156642875583 4.537687541659878e-16
  outer loop
    vertex 7.779584847474551 0.3375027047149056 8.020040627507101e-16
    vertex 7.77958484747456 0.3375027047149075 19.999999999999993
    vertex 7.618045479519161 0.9928936837191007 7.186956343751977e-16
  endloop
endfacet
facet normal -1 0 4.440892098500628e-16
  outer loop
    vertex 7.779584847474551 -0.33750270471490346 8.69504603693691e-16
    vertex 7.77958484747456 -0.3375027047149004 19.999999999999993
    vertex 7.77958484747456 0.3375027047149075 19.999999999999993
  endloop
endfacet
facet normal -0.9999999999999999 4.4408920985006255e-32 4.440892098500627e-16
  outer loop
    vertex 7.779584847474551 -0.33750270471490346 8.69504603693691e-16
    vertex 7.77958484747456 0.3375027047149075 19.999999999999993
    vertex 7.779584847474551 0.3375027047149056 8.020040627507101e-16
  endloop
endfacet
facet normal -0.9709418174260522 0.23931566428755688 4.4242001168477023e-16
  outer loop
    vertex 7.618045479519161 -0.9928936837190987 9.172743711190177e-16
    vertex 7.6180454795191705 -0.992893683719096 19.999999999999993
    vertex 7.77958484747456 -0.3375027047149004 19.999999999999993
  endloop
endfacet
facet normal -0.970941817426052 0.2393156642875583 3.9371482481027753e-16
  outer loop
    vertex 7.618045479519161 -0.9928936837190987 9.172743711190177e-16
    vertex 7.77958484747456 -0.3375027047149004 19.999999999999993
    vertex 7.779584847474551 -0.33750270471490346 8.69504603693691e-16
  endloop
endfacet
facet normal -0.88545602565321 0.4647231720437684 2.9714521988559853e-16
  outer loop
    vertex 7.304354824502239 -1.5905812908472352 9.425371597799698e-16
    vertex 7.304354824502247 -1.5905812908472328 19.999999999999993
    vertex 7.6180454795191705 -0.992893683719096 19.999999999999993
  endloop
endfacet
facet normal -0.8854560256532111 0.4647231720437665 3.7007137580078357e-16
  outer loop
    vertex 7.304354824502239 -1.5905812908472352 9.425371597799698e-16
    vertex 7.6180454795191705 -0.992893683719096 19.999999999999993
    vertex 7.618045479519161 -0.9928936837190987 9.172743711190177e-16
  endloop
endfacet
facet normal -0.7485107481710999 0.6631226582407966 1.557141763204859e-16
  outer loop
    vertex 6.856743443074228 -2.095830094879082 9.438247882260732e-16
    vertex 6.856743443074237 -2.0958300948790765 19.999999999999993
    vertex 7.304354824502247 -1.5905812908472328 19.999999999999993
  endloop
endfacet
facet normal -0.5680647467311581 0.8229838658936548 3.298447168507815e-17
  outer loop
    vertex 6.856743443074228 -2.095830094879082 9.438247882260732e-16
    vertex 6.301224881722563 -2.479276871828983 19.999999999999993
    vertex 6.856743443074237 -2.0958300948790765 19.999999999999993
  endloop
endfacet
facet normal -0.748510748171101 0.6631226582407952 2.1793092130490566e-16
  outer loop
    vertex 6.856743443074228 -2.095830094879082 9.438247882260732e-16
    vertex 7.304354824502247 -1.5905812908472328 19.999999999999993
    vertex 7.304354824502239 -1.5905812908472352 9.425371597799698e-16
  endloop
endfacet
facet normal -0.5680647467311568 0.8229838658936558 8.780620989368685e-17
  outer loop
    vertex 6.301224881722554 -2.479276871828987 9.210624241723796e-16
    vertex 6.301224881722563 -2.479276871828983 19.999999999999993
    vertex 6.856743443074228 -2.095830094879082 9.438247882260732e-16
  endloop
endfacet
facet normal -0.35460488704253573 0.9350162426854149 -2.8783329228949806e-17
  outer loop
    vertex 5.670083860005164 -2.7186370887929447 8.755729334798626e-16
    vertex 6.301224881722563 -2.479276871828983 19.999999999999993
    vertex 6.301224881722554 -2.479276871828987 9.210624241723796e-16
  endloop
endfacet
facet normal -0.3546048870425374 0.9350162426854143 3.290701677234915e-17
  outer loop
    vertex 5.670083860005164 -2.7186370887929447 8.755729334798626e-16
    vertex 5.670083860005173 -2.718637088792942 19.999999999999993
    vertex 6.301224881722563 -2.479276871828983 19.999999999999993
  endloop
endfacet
facet normal -0.1205366802553244 0.9927088740980539 -7.864016735766654e-17
  outer loop
    vertex 5.0000000000000036 -2.8 8.100000000000003e-16
    vertex 5.670083860005173 -2.718637088792942 19.999999999999993
    vertex 5.670083860005164 -2.7186370887929447 8.755729334798626e-16
  endloop
endfacet
facet normal -0.1205366802553244 0.9927088740980539 -7.872635076026839e-17
  outer loop
    vertex 5.0000000000000036 -2.8 8.100000000000003e-16
    vertex 5.000000000000012 -2.799999999999997 19.999999999999993
    vertex 5.670083860005173 -2.718637088792942 19.999999999999993
  endloop
endfacet
facet normal 0.12053668025532424 0.9927088740980539 -1.8578442894534166e-16
  outer loop
    vertex 5.0000000000000036 -2.8 8.100000000000003e-16
    vertex 4.329916139994851 -2.718637088792942 19.999999999999993
    vertex 5.000000000000012 -2.799999999999997 19.999999999999993
  endloop
endfacet
facet normal 0.12053668025532165 0.9927088740980542 -2.7395468884721063e-16
  outer loop
    vertex 4.329916139994842 -2.7186370887929465 7.281544842787273e-16
    vertex 4.329916139994851 -2.718637088792942 19.999999999999993
    vertex 5.0000000000000036 -2.8 8.100000000000003e-16
  endloop
endfacet
facet normal 0.3546048870425345 0.9350162426854153 -3.6595947162521906e-16
  outer loop
    vertex 3.698775118277452 -2.4792768718289895 6.347929501934187e-16
    vertex 4.329916139994851 -2.718637088792942 19.999999999999993
    vertex 4.329916139994842 -2.7186370887929465 7.281544842787273e-16
  endloop
endfacet
facet normal 0.354604887042533 0.9350162426854158 -3.10680732844373e-16
  outer loop
    vertex 3.698775118277452 -2.4792768718289895 6.347929501934187e-16
    vertex 3.6987751182774615 -2.4792768718289864 19.999999999999993
    vertex 4.329916139994851 -2.718637088792942 19.999999999999993
  endloop
endfacet
facet normal 0.5680647467311539 0.8229838658936577 -3.928023848989125e-16
  outer loop
    vertex 3.698775118277452 -2.4792768718289895 6.347929501934187e-16
    vertex 3.143256556925787 -2.0958300948790836 19.999999999999993
    vertex 3.6987751182774615 -2.4792768718289864 19.999999999999993
  endloop
endfacet
facet normal 0.5680647467311539 0.8229838658936577 -3.9280238489891246e-16
  outer loop
    vertex 3.1432565569257775 -2.0958300948790867 5.353412307497442e-16
    vertex 3.143256556925787 -2.0958300948790836 19.999999999999993
    vertex 3.698775118277452 -2.4792768718289895 6.347929501934187e-16
  endloop
endfacet
facet normal 0.7485107481711001 0.6631226582407965 -4.523094593120684e-16
  outer loop
    vertex 2.6956451754977655 -1.5905812908472408 4.3557909838947827e-16
    vertex 3.143256556925787 -2.0958300948790836 19.999999999999993
    vertex 3.1432565569257775 -2.0958300948790867 5.353412307497442e-16
  endloop
endfacet
facet normal 0.7485107481711009 0.6631226582407955 -4.962686327214768e-16
  outer loop
    vertex 2.6956451754977655 -1.5905812908472408 4.3557909838947827e-16
    vertex 2.695645175497775 -1.5905812908472363 19.999999999999993
    vertex 3.143256556925787 -2.0958300948790836 19.999999999999993
  endloop
endfacet
facet normal 0.8854560256532082 0.4647231720437715 -5.160718132647423e-16
  outer loop
    vertex 2.6956451754977655 -1.5905812908472408 4.3557909838947827e-16
    vertex 2.3819545204808503 -0.9928936837191031 19.999999999999993
    vertex 2.695645175497775 -1.5905812908472363 19.999999999999993
  endloop
endfacet
facet normal 0.8854560256532089 0.4647231720437703 -4.670569085251584e-16
  outer loop
    vertex 2.381954520480841 -0.9928936837191055 3.4130436562480313e-16
    vertex 2.3819545204808503 -0.9928936837191031 19.999999999999993
    vertex 2.6956451754977655 -1.5905812908472408 4.3557909838947827e-16
  endloop
endfacet
facet normal 0.9709418174260513 0.23931566428756046 -4.821207645849094e-16
  outer loop
    vertex 2.2204151525254496 -0.33750270471491123 2.5799593724929063e-16
    vertex 2.3819545204808503 -0.9928936837191031 19.999999999999993
    vertex 2.381954520480841 -0.9928936837191055 3.4130436562480313e-16
  endloop
endfacet
facet normal 0.9709418174260513 0.23931566428755996 -4.972477286447985e-16
  outer loop
    vertex 2.2204151525254496 -0.33750270471491123 2.5799593724929063e-16
    vertex 2.220415152525459 -0.3375027047149075 19.999999999999993
    vertex 2.3819545204808503 -0.9928936837191031 19.999999999999993
  endloop
endfacet
facet normal 1 1.9737140042708436e-15 -4.662936703425663e-16
  outer loop
    vertex 2.2204151525254483 0.3375027047148973 1.904953963063096e-16
    vertex 2.220415152525459 -0.3375027047149075 19.999999999999993
    vertex 2.2204151525254496 -0.33750270471491123 2.5799593724929063e-16
  endloop
endfacet
facet normal 0.9999999999999999 1.9737140042708463e-15 -4.662936703425662e-16
  outer loop
    vertex 2.2204151525254483 0.3375027047148973 1.904953963063096e-16
    vertex 2.2204151525254576 0.3375027047149004 19.999999999999993
    vertex 2.220415152525459 -0.3375027047149075 19.999999999999993
  endloop
endfacet
facet normal 0.9709418174260528 -0.23931566428755438 -4.1554689724630473e-16
  outer loop
    vertex 2.2204151525254483 0.3375027047148973 1.904953963063096e-16
    vertex 2.381954520480845 0.992893683719096 19.999999999999993
    vertex 2.2204151525254576 0.3375027047149004 19.999999999999993
  endloop
endfacet
facet normal 0.9709418174260529 -0.23931566428755466 -4.0624761562371187e-16
  outer loop
    vertex 2.3819545204808357 0.9928936837190921 1.4272562888098271e-16
    vertex 2.381954520480845 0.992893683719096 19.999999999999993
    vertex 2.2204151525254483 0.3375027047148973 1.904953963063096e-16
  endloop
endfacet
facet normal 0.8854560256532116 -0.4647231720437657 -3.227844777817944e-16
  outer loop
    vertex 2.695645175497757 1.5905812908472292 1.1746284022003044e-16
    vertex 2.381954520480845 0.992893683719096 19.999999999999993
    vertex 2.3819545204808357 0.9928936837190921 1.4272562888098271e-16
  endloop
endfacet
facet normal 0.8854560256532114 -0.4647231720437658 -3.303311216200048e-16
  outer loop
    vertex 2.695645175497757 1.5905812908472292 1.1746284022003044e-16
    vertex 2.6956451754977664 1.5905812908472328 19.999999999999993
    vertex 2.381954520480845 0.992893683719096 19.999999999999993
  endloop
endfacet
facet normal 0.7485107481711025 -0.6631226582407937 -2.3232258591938073e-16
  outer loop
    vertex 3.143256556925767 2.0958300948790765 1.1617521177392672e-16
    vertex 2.6956451754977664 1.5905812908472328 19.999999999999993
    vertex 2.695645175497757 1.5905812908472292 1.1746284022003044e-16
  endloop
endfacet
facet normal 0.7485107481711025 -0.6631226582407937 -2.3123157712283256e-16
  outer loop
    vertex 3.143256556925767 2.0958300948790765 1.1617521177392672e-16
    vertex 3.143256556925776 2.09583009487908 19.999999999999993
    vertex 2.6956451754977664 1.5905812908472328 19.999999999999993
  endloop
endfacet
facet normal 0.568064746731159 -0.8229838658936541 -1.1869369385586712e-16
  outer loop
    vertex 3.143256556925767 2.0958300948790765 1.1617521177392672e-16
    vertex 3.6987751182774486 2.4792768718289864 19.999999999999993
    vertex 3.143256556925776 2.09583009487908 19.999999999999993
  endloop
endfacet
facet normal 0.5680647467311595 -0.8229838658936538 -1.369676065920705e-16
  outer loop
    vertex 3.6987751182774393 2.4792768718289833 1.3893757582762005e-16
    vertex 3.6987751182774486 2.4792768718289864 19.999999999999993
    vertex 3.143256556925767 2.0958300948790765 1.1617521177392672e-16
  endloop
endfacet
facet normal 0.3546048870425383 -0.935016242685414 -3.290701677234958e-17
  outer loop
    vertex 4.329916139994828 2.718637088792943 1.844270665201369e-16
    vertex 4.329916139994837 2.7186370887929456 19.999999999999993
    vertex 3.6987751182774486 2.4792768718289864 19.999999999999993
  endloop
endfacet
facet normal 0.3546048870425386 -0.9350162426854137 -2.0559520877821306e-17
  outer loop
    vertex 4.329916139994828 2.718637088792943 1.844270665201369e-16
    vertex 3.6987751182774486 2.4792768718289864 19.999999999999993
    vertex 3.6987751182774393 2.4792768718289833 1.3893757582762005e-16
  endloop
endfacet
facet normal 0.12053668025533379 -0.9927088740980528 4.729687229648741e-16
  outer loop
    vertex 5.000000000000001 2.799999999999998 0
    vertex 4.999999999999996 2.800000000000007 20
    vertex 4.329916139994837 2.7186370887929456 19.999999999999993
  endloop
endfacet
facet normal 0.12053668025532217 -0.9927088740980541 7.915415537961062e-17
  outer loop
    vertex 5.000000000000001 2.799999999999998 0
    vertex 4.329916139994837 2.7186370887929456 19.999999999999993
    vertex 4.329916139994828 2.718637088792943 1.844270665201369e-16
  endloop
endfacet
facet normal 0 0 -1
  outer loop
    vertex 7.6180454795191705 0.9928936837191031 19.999999999999993
    vertex 6.30122488172256 2.47927687182899 19.999999999999993
    vertex 6.856743443074235 2.095830094879087 19.999999999999993
  endloop
endfacet
facet normal 0 0 -1
  outer loop
    vertex 7.6180454795191705 0.9928936837191031 19.999999999999993
    vertex 6.856743443074235 2.095830094879087 19.999999999999993
    vertex 7.304354824502246 1.5905812908472399 19.999999999999993
  endloop
endfacet
facet normal -2.3150734766438637e-28 8.733005311865507e-14 -0.9999999999999999
  outer loop
    vertex 4.329916139994837 2.7186370887929456 19.999999999999993
    vertex 4.999999999999996 2.800000000000008 20
    vertex 5.67008386000517 2.718637088792949 19.999999999999993
  endloop
endfacet
facet normal 0 0 -1
  outer loop
    vertex 4.329916139994837 2.7186370887929456 19.999999999999993
    vertex 5.67008386000517 2.718637088792949 19.999999999999993
    vertex 6.30122488172256 2.47927687182899 19.999999999999993
  endloop
endfacet
facet normal 0 0 -1
  outer loop
    vertex 4.329916139994837 2.7186370887929456 19.999999999999993
    vertex 6.30122488172256 2.47927687182899 19.999999999999993
    vertex 7.6180454795191705 0.9928936837191031 19.999999999999993
  endloop
endfacet
facet normal 0 0 -1
  outer loop
    vertex 3.143256556925776 2.09583009487908 19.999999999999993
    vertex 3.6987751182774486 2.4792768718289864 19.999999999999993
    vertex 4.329916139994837 2.7186370887929456 19.999999999999993
  endloop
endfacet
facet normal 0 0 -1
  outer loop
    vertex 6.856743443074237 -2.0958300948790765 19.999999999999993
    vertex 7.6180454795191705 -0.992893683719096 19.999999999999993
    vertex 7.304354824502247 -1.5905812908472328 19.999999999999993
  endloop
endfacet
facet normal 0 0 -0.9999999999999999
  outer loop
    vertex 2.381954520480845 0.992893683719096 19.999999999999993
    vertex 2.6956451754977664 1.5905812908472328 19.999999999999993
    vertex 3.143256556925776 2.09583009487908 19.999999999999993
  endloop
endfacet
facet normal 0 0 -1
  outer loop
    vertex 2.381954520480845 0.992893683719096 19.999999999999993
    vertex 3.143256556925776 2.09583009487908 19.999999999999993
    vertex 4.329916139994837 2.7186370887929456 19.999999999999993
  endloop
endfacet
facet normal 0 0 -1
  outer loop
    vertex 5.670083860005173 -2.718637088792942 19.999999999999993
    vertex 7.6180454795191705 0.9928936837191031 19.999999999999993
    vertex 7.77958484747456 0.3375027047149075 19.999999999999993
  endloop
endfacet
facet normal 0 0 -1
  outer loop
    vertex 5.670083860005173 -2.718637088792942 19.999999999999993
    vertex 7.77958484747456 0.3375027047149075 19.999999999999993
    vertex 7.77958484747456 -0.3375027047149004 19.999999999999993
  endloop
endfacet
facet normal 0 0 -1
  outer loop
    vertex 5.670083860005173 -2.718637088792942 19.999999999999993
    vertex 7.77958484747456 -0.3375027047149004 19.999999999999993
    vertex 7.6180454795191705 -0.992893683719096 19.999999999999993
  endloop
endfacet
facet normal 0 0 -1
  outer loop
    vertex 5.670083860005173 -2.718637088792942 19.999999999999993
    vertex 6.856743443074237 -2.0958300948790765 19.999999999999993
    vertex 6.301224881722563 -2.479276871828983 19.999999999999993
  endloop
endfacet
facet normal 0 0 -1
  outer loop
    vertex 5.670083860005173 -2.718637088792942 19.999999999999993
    vertex 4.329916139994837 2.7186370887929456 19.999999999999993
    vertex 7.6180454795191705 0.9928936837191031 19.999999999999993
  endloop
endfacet
facet normal 0 0 -0.9999999999999999
  outer loop
    vertex 5.670083860005173 -2.718637088792942 19.999999999999993
    vertex 7.6180454795191705 -0.992893683719096 19.999999999999993
    vertex 6.856743443074237 -2.0958300948790765 19.999999999999993
  endloop
endfacet
facet normal 0 0 -1
  outer loop
    vertex 4.329916139994851 -2.718637088792942 19.999999999999993
    vertex 5.670083860005173 -2.718637088792942 19.999999999999993
    vertex 5.000000000000012 -2.799999999999997 19.999999999999993
  endloop
endfacet
facet normal 0 0 -0.9999999999999999
  outer loop
    vertex 2.3819545204808503 -0.9928936837191031 19.999999999999993
    vertex 2.220415152525459 -0.3375027047149075 19.999999999999993
    vertex 2.2204151525254576 0.3375027047149004 19.999999999999993
  endloop
endfacet
facet normal 0 0 -1
  outer loop
    vertex 2.3819545204808503 -0.9928936837191031 19.999999999999993
    vertex 2.2204151525254576 0.3375027047149004 19.999999999999993
    vertex 2.381954520480845 0.992893683719096 19.999999999999993
  endloop
endfacet
facet normal 0 0 -1
  outer loop
    vertex 2.3819545204808503 -0.9928936837191031 19.999999999999993
    vertex 2.381954520480845 0.992893683719096 19.999999999999993
    vertex 4.329916139994837 2.7186370887929456 19.999999999999993
  endloop
endfacet
facet normal 0 0 -1
  outer loop
    vertex 2.695645175497775 -1.5905812908472363 19.999999999999993
    vertex 4.329916139994837 2.7186370887929456 19.999999999999993
    vertex 5.670083860005173 -2.718637088792942 19.999999999999993
  endloop
endfacet
facet normal 0 0 -1
  outer loop
    vertex 2.695645175497775 -1.5905812908472363 19.999999999999993
    vertex 2.3819545204808503 -0.9928936837191031 19.999999999999993
    vertex 4.329916139994837 2.7186370887929456 19.999999999999993
  endloop
endfacet
facet normal 0 0 -1
  outer loop
    vertex 3.143256556925787 -2.0958300948790836 19.999999999999993
    vertex 4.329916139994851 -2.718637088792942 19.999999999999993
    vertex 3.6987751182774615 -2.4792768718289864 19.999999999999993
  endloop
endfacet
facet normal 0 0 -1
  outer loop
    vertex 3.143256556925787 -2.0958300948790836 19.999999999999993
    vertex 5.670083860005173 -2.718637088792942 19.999999999999993
    vertex 4.329916139994851 -2.718637088792942 19.999999999999993
  endloop
endfacet
facet normal 0 0 -0.9999999999999999
  outer loop
    vertex 3.143256556925787 -2.0958300948790836 19.999999999999993
    vertex 2.695645175497775 -1.5905812908472363 19.999999999999993
    vertex 5.670083860005173 -2.718637088792942 19.999999999999993
  endloop
endfacet
endsolid Model
